# xmcd CD database file
# Copyright (C) 1996 Ti Kan
#
# Track frame offsets:
#	150
#	24095
#	42468
#	57411
#	77038
#	98374
#	119659
#	139936
#	156619
#	175001
#	193975
# Disc length: 2918 seconds
#
# Revision: 1
# Processed by: cddbd v1.4PL0 Copyright (c) Steve Scherf et al.
# Submitted via: CDCOPY 4.900
#
DISCID=950b640b
DTITLE=Shane Bridges - Moodswing Halo
DYEAR=1900
DGENRE=
TTITLE0=King of the Drifters
TTITLE1=Cold Hearted
TTITLE2=Chaos
TTITLE3=Refugee
TTITLE4=Beautiful World
TTITLE5=Return to Me
TTITLE6=True Lover's Life
TTITLE7=Better Than This
TTITLE8=Something In Between
TTITLE9=Misfortune
TTITLE10=Lost And Found
EXTD=
EXTT0=
EXTT1=
EXTT2=
EXTT3=
EXTT4=
EXTT5=
EXTT6=
EXTT7=
EXTT8=
EXTT9=
EXTT10=
PLAYORDER=
